# xmcd
#
# Track frame offsets:
#	150
#	12646
#	24856
#	37413
#	49412
#	62392
#	73202
#	87378
#	99227
#	112113
#	122960
#	137036
#	153510
#	168195
#	184116
#	197715
#	211358
#	228470
#	240313
#	252380
#
# Disc length: 3542 seconds
#
# Revision: 0
# Processed by: cddbd v1.5.2PL0 Copyright (c) Steve Scherf et al.
# Submitted via: EZCDAudioConverter 1.3.3.1
#
DISCID=200dd414
DTITLE=Dickey Lee - Original Greatest Hits
DYEAR=1900
DGENRE=
TTITLE0=The Mahogany Pulpit 
TTITLE1=Never Ending Song Of Love
TTITLE2=I Saw My Lady
TTITLE3=Ashes Of Love
TTITLE4=She Thinks I Still Care
TTITLE5=Baby, Bye Bye 
TTITLE6=Crying Over You
TTITLE7=Put Me Down Softly
TTITLE8=Sparklin' Brown Eyes
TTITLE9=I Use The Soap
TTITLE10=The Busiest Memory In Town
TTITLE11=Rocky 
TTITLE12=Angels, Roses And Rain
TTITLE13=Makin' Love Don't Always Make Love Grow
TTITLE14=9,999,999 Tears 
TTITLE15=If You Gotta Make A Fool Of Somebody 
TTITLE16=Virginia, How Far Will You Go
TTITLE17=Peanut Butter 
TTITLE18=Love Is A Word 
TTITLE19=It's Not Easy 
EXTD=
EXTT0=
EXTT1=
EXTT2=
EXTT3=
EXTT4=
EXTT5=
EXTT6=
EXTT7=
EXTT8=
EXTT9=
EXTT10=
EXTT11=
EXTT12=
EXTT13=
EXTT14=
EXTT15=
EXTT16=
EXTT17=
EXTT18=
EXTT19=
PLAYORDER=
